<svg width="378" height="192" viewBox="0 0 378 192" fill="none" xmlns="http://www.w3.org/2000/svg">
<g filter="url(#filter0_d)">
<path d="M267.013 5.00004L242 147.485L352.936 166.96L377.95 24.475L267.013 5.00004Z" fill="#CCCCCC"/>
<path d="M267.013 5.00004L242 147.485L352.936 166.96L377.95 24.475L267.013 5.00004Z" fill="white"/>
<path d="M272.973 31.5942L334.69 42.4287L335.325 38.8084L273.608 27.9739L272.973 31.5942Z" fill="#DBDBDB"/>
<path d="M271.399 40.7909L333.117 51.6255L333.752 48.0052L272.035 37.1706L271.399 40.7909Z" fill="#DBDBDB"/>
<path d="M269.725 50.0575L331.442 60.8921L332.078 57.2718L270.36 46.4372L269.725 50.0575Z" fill="#DBDBDB"/>
<path d="M268.092 59.3142L358.514 75.1877L359.149 71.5674L268.728 55.6939L268.092 59.3142Z" fill="#DBDBDB"/>
<path d="M266.52 68.5098L356.941 84.3833L357.576 80.763L267.155 64.8895L266.52 68.5098Z" fill="#DBDBDB"/>
<path d="M264.931 77.792L355.353 93.6655L355.988 90.0452L265.567 74.1717L264.931 77.792Z" fill="#DBDBDB"/>
<path d="M263.272 86.9727L353.693 102.846L354.329 99.2259L263.908 83.3524L263.272 86.9727Z" fill="#DBDBDB"/>
<path d="M261.684 96.2549L352.105 112.128L352.741 108.508L262.32 92.6346L261.684 96.2549Z" fill="#DBDBDB"/>
<path d="M260.026 105.436L350.447 121.309L351.082 117.689L260.661 101.815L260.026 105.436Z" fill="#DBDBDB"/>
<path d="M258.437 114.718L348.858 130.591L349.494 126.971L259.073 111.097L258.437 114.718Z" fill="#DBDBDB"/>
<path d="M256.778 123.898L347.2 139.772L347.835 136.151L257.414 120.278L256.778 123.898Z" fill="#DBDBDB"/>
<path d="M255.191 133.18L345.612 149.054L346.247 145.434L255.826 129.56L255.191 133.18Z" fill="#DBDBDB"/>
</g>
<path d="M98.2533 0.875297L0 55.9548L70.7432 182.15L168.997 127.07L98.2533 0.875297Z" fill="white"/>
<path d="M21.3922 72.7553L76.0537 42.1128L74.2562 38.9064L19.5947 69.5489L21.3922 72.7553Z" fill="#DBDBDB"/>
<path d="M25.9044 80.9138L80.5659 50.2712L78.7684 47.0648L24.1069 77.7074L25.9044 80.9138Z" fill="#DBDBDB"/>
<path d="M30.5352 89.1057L85.1968 58.4631L83.3993 55.2567L28.7378 85.8993L30.5352 89.1057Z" fill="#DBDBDB"/>
<path d="M35.1228 97.2801L115.207 52.3862L113.409 49.1798L33.3253 94.0737L35.1228 97.2801Z" fill="#DBDBDB"/>
<path d="M39.635 105.438L119.719 60.5444L117.921 57.338L37.8376 102.232L39.635 105.438Z" fill="#DBDBDB"/>
<path d="M44.2659 113.63L124.35 68.7366L122.552 65.5302L42.4684 110.424L44.2659 113.63Z" fill="#DBDBDB"/>
<path d="M48.8972 121.822L128.981 76.9282L127.183 73.7218L47.0998 118.616L48.8972 121.822Z" fill="#DBDBDB"/>
<path d="M53.4089 129.981L133.493 85.0874L131.695 81.881L51.6115 126.775L53.4089 129.981Z" fill="#DBDBDB"/>
<path d="M58.0398 138.173L138.124 93.2791L136.326 90.0726L56.2423 134.967L58.0398 138.173Z" fill="#DBDBDB"/>
<path d="M62.552 146.332L142.636 101.438L140.838 98.2313L60.7545 143.125L62.552 146.332Z" fill="#DBDBDB"/>
<path d="M67.1829 154.524L147.267 109.63L145.469 106.423L65.3854 151.317L67.1829 154.524Z" fill="#DBDBDB"/>
<path d="M71.7708 162.639L151.854 117.745L150.057 114.539L69.9733 159.433L71.7708 162.639Z" fill="#DBDBDB"/>
<g filter="url(#filter1_d)">
<path d="M247 164.152L132.276 187.745L102 40.5175L187.157 23L222.496 44.9728L247 164.152Z" fill="#EEEEEE"/>
<path d="M247 164.152L132.276 187.745L102 40.5175L187.157 23L222.496 44.9728L247 164.152Z" fill="white"/>
<path d="M187.157 23L222.495 44.9728L192.928 51.0482L187.157 23Z" fill="#EEEEEE"/>
<path d="M119.044 66.6756L182.818 53.5693L182.043 49.8004L118.27 62.9067L119.044 66.6756Z" fill="#DBDBDB"/>
<path d="M121.048 76.2391L184.821 63.1328L184.047 59.3639L120.273 72.4702L121.048 76.2391Z" fill="#DBDBDB"/>
<path d="M122.952 85.8228L186.725 72.7166L185.951 68.9477L122.177 82.054L122.952 85.8228Z" fill="#DBDBDB"/>
<path d="M124.941 95.276L218.37 76.0752L217.596 72.3063L124.167 91.5071L124.941 95.276Z" fill="#DBDBDB"/>
<path d="M126.945 104.839L220.374 85.6379L219.599 81.8691L126.17 101.07L126.945 104.839Z" fill="#DBDBDB"/>
<path d="M128.85 114.423L222.278 95.2222L221.504 91.4533L128.075 110.654L128.85 114.423Z" fill="#DBDBDB"/>
<path d="M130.853 123.987L224.282 104.786L223.507 101.017L130.079 120.218L130.853 123.987Z" fill="#DBDBDB"/>
<path d="M132.835 133.451L226.264 114.25L225.49 110.482L132.061 129.682L132.835 133.451Z" fill="#DBDBDB"/>
<path d="M134.739 143.035L228.168 123.834L227.393 120.065L133.965 139.266L134.739 143.035Z" fill="#DBDBDB"/>
<path d="M136.743 152.599L230.171 133.398L229.397 129.629L135.968 148.83L136.743 152.599Z" fill="#DBDBDB"/>
<path d="M138.646 162.182L232.075 142.981L231.301 139.213L137.872 158.413L138.646 162.182Z" fill="#DBDBDB"/>
<path d="M140.63 171.647L234.059 152.447L233.284 148.678L139.855 167.878L140.63 171.647Z" fill="#DBDBDB"/>
</g>
<path d="M244.963 110.649C234.776 125.427 214.537 129.149 199.759 118.963C184.98 108.776 181.258 88.5372 191.445 73.7587C201.632 58.9803 221.87 55.2581 236.649 65.445C251.427 75.632 255.149 95.8704 244.963 110.649ZM195.459 76.5255C186.8 89.0872 189.964 106.29 202.526 114.949C215.087 123.608 232.29 120.444 240.949 107.882C249.608 95.3204 246.444 78.1177 233.882 69.4589C221.32 60.8 204.118 63.9638 195.459 76.5255Z" fill="#C4C4C4"/>
<circle cx="218.204" cy="92.2038" r="32.5" transform="rotate(34.5788 218.204 92.2038)" fill="#C4C4C4" fill-opacity="0.25"/>
<rect x="244.223" y="104.674" width="64" height="8" rx="4" transform="rotate(34.5788 244.223 104.674)" fill="#C4C4C4"/>
<defs>
<filter id="filter0_d" x="242" y="5" width="135.95" height="165.96" filterUnits="userSpaceOnUse" color-interpolation-filters="sRGB">
<feFlood flood-opacity="0" result="BackgroundImageFix"/>
<feColorMatrix in="SourceAlpha" type="matrix" values="0 0 0 0 0 0 0 0 0 0 0 0 0 0 0 0 0 0 127 0"/>
<feOffset dy="4"/>
<feColorMatrix type="matrix" values="0 0 0 0 0 0 0 0 0 0 0 0 0 0 0 0 0 0 0.02 0"/>
<feBlend mode="normal" in2="BackgroundImageFix" result="effect1_dropShadow"/>
<feBlend mode="normal" in="SourceGraphic" in2="effect1_dropShadow" result="shape"/>
</filter>
<filter id="filter1_d" x="102" y="23" width="145" height="168.745" filterUnits="userSpaceOnUse" color-interpolation-filters="sRGB">
<feFlood flood-opacity="0" result="BackgroundImageFix"/>
<feColorMatrix in="SourceAlpha" type="matrix" values="0 0 0 0 0 0 0 0 0 0 0 0 0 0 0 0 0 0 127 0"/>
<feOffset dy="4"/>
<feColorMatrix type="matrix" values="0 0 0 0 0 0 0 0 0 0 0 0 0 0 0 0 0 0 0.02 0"/>
<feBlend mode="normal" in2="BackgroundImageFix" result="effect1_dropShadow"/>
<feBlend mode="normal" in="SourceGraphic" in2="effect1_dropShadow" result="shape"/>
</filter>
</defs>
</svg>
